<?xml version="1.0" encoding="utf-8"?>
<!-- Generator: Adobe Illustrator 20.0.0, SVG Export Plug-In . SVG Version: 6.00 Build 0)  -->
<svg version="1.1" id="Layer_1" xmlns="http://www.w3.org/2000/svg" xmlns:xlink="http://www.w3.org/1999/xlink" x="0px" y="0px"
	 viewBox="0 0 800 200" style="enable-background:new 0 0 800 200;" xml:space="preserve">
<style type="text/css">
	.st0{fill:#FFFFFF;}
	.st1{fill:#82BC00;}
</style>
<g>
	<path class="st0" d="M226.5,59.1L208,81.3h-1.4l-18.4-22.2v36.9h-7.4V47.2h6.8l19.8,23.8l19.8-23.8h6.7v48.7h-7.4V59.1z"/>
	<path class="st0" d="M251.1,43.8c2.6,0,4.4,1.1,4.4,4c0,3-1.8,4.1-4.4,4.1c-2.7,0-4.6-1.1-4.6-4.1
		C246.5,44.9,248.4,43.8,251.1,43.8z M247.3,58.5h7.4v37.5h-7.4V58.5z"/>
	<path class="st0" d="M291.9,67c-3.2-1.6-7.7-2.9-11.7-2.9c-4.7,0-7.3,1.6-7.3,4.9c0,2.6,1.5,3.2,5.4,4.2l6.2,1.5
		c7.6,1.8,10.7,5.2,10.7,10.5c0,6.9-6.1,11.5-15.5,11.5c-6.4,0-11.4-1.8-14.2-3.2l1.4-6.4c3.1,1.6,7.6,3.4,12.5,3.4
		c4.9,0,8.3-1.7,8.3-4.8c0-2.3-2.2-3.6-6-4.5l-5.9-1.4c-7.2-1.7-10.3-4.5-10.3-10.1c0-7,5.4-11.7,15.3-11.7c4.8,0,10.3,1.4,13.2,2.7
		L291.9,67z"/>
	<path class="st0" d="M329.7,67c-3.2-1.6-7.7-2.9-11.7-2.9c-4.7,0-7.3,1.6-7.3,4.9c0,2.6,1.5,3.2,5.4,4.2l6.2,1.5
		c7.6,1.8,10.7,5.2,10.7,10.5c0,6.9-6.1,11.5-15.5,11.5c-6.4,0-11.4-1.8-14.2-3.2l1.4-6.4c3.1,1.6,7.6,3.4,12.5,3.4
		c4.9,0,8.3-1.7,8.3-4.8c0-2.3-2.2-3.6-6-4.5l-5.9-1.4c-7.2-1.7-10.3-4.5-10.3-10.1c0-7,5.4-11.7,15.3-11.7c4.8,0,10.3,1.4,13.2,2.7
		L329.7,67z"/>
	<path class="st0" d="M346.7,43.8c2.7,0,4.4,1.1,4.4,4c0,3-1.8,4.1-4.4,4.1c-2.7,0-4.6-1.1-4.6-4.1C342.2,44.9,344,43.8,346.7,43.8z
		 M343,58.5h7.4v37.5H343V58.5z"/>
	<path class="st0" d="M387.6,67c-3.2-1.6-7.7-2.9-11.7-2.9c-4.7,0-7.3,1.6-7.3,4.9c0,2.6,1.5,3.2,5.4,4.2l6.2,1.5
		c7.6,1.8,10.7,5.2,10.7,10.5c0,6.9-6.1,11.5-15.5,11.5c-6.4,0-11.4-1.8-14.2-3.2l1.4-6.4c3.1,1.6,7.6,3.4,12.5,3.4
		c4.9,0,8.3-1.7,8.3-4.8c0-2.3-2.2-3.6-6-4.5l-5.9-1.4c-7.2-1.7-10.3-4.5-10.3-10.1c0-7,5.4-11.7,15.3-11.7c4.8,0,10.3,1.4,13.2,2.7
		L387.6,67z"/>
	<path class="st0" d="M425.3,67c-3.2-1.6-7.7-2.9-11.7-2.9c-4.7,0-7.3,1.6-7.3,4.9c0,2.6,1.5,3.2,5.4,4.2l6.2,1.5
		c7.6,1.8,10.7,5.2,10.7,10.5c0,6.9-6.1,11.5-15.5,11.5c-6.4,0-11.4-1.8-14.2-3.2l1.4-6.4c3.1,1.6,7.6,3.4,12.5,3.4
		c4.9,0,8.3-1.7,8.3-4.8c0-2.3-2.2-3.6-6-4.5l-5.9-1.4c-7.2-1.7-10.3-4.5-10.3-10.1c0-7,5.4-11.7,15.3-11.7c4.8,0,10.3,1.4,13.2,2.7
		L425.3,67z"/>
	<path class="st0" d="M439.7,60.4c3.6-1.5,8.9-2.6,13.7-2.6c10.7,0,15.1,6.2,15.1,14.3v23.8H461v-4.1c-2.6,2.5-6.4,4.8-12,4.8
		c-8,0-12.7-4.4-12.7-11.2c0-9,7.2-13.2,17.6-13.2c2.7,0,5,0.3,7.1,0.7v-0.4c0-5.6-2.7-8.2-8.2-8.2c-3.9,0-8.5,1.1-11.7,2.6
		L439.7,60.4z M451.4,90.7c4.4,0,7.7-2.1,9.7-3.8v-8.7c-1.4-0.4-3.5-0.6-5.6-0.6c-6.6,0-11.7,2.1-11.7,7
		C443.8,88.7,446.8,90.7,451.4,90.7z"/>
	<path class="st0" d="M508.1,95.9v-5.8c-2.8,3.9-7.3,6.4-13.3,6.4c-10.2,0-14.7-7.2-14.7-16.5V58.5h7.4v20.4
		c0,6.4,2.9,10.8,9.7,10.8c5.8,0,9.6-4,10.9-8.1V58.5h7.4v37.5H508.1z"/>
	<path class="st0" d="M543.7,57.8c5.3,0,9.3,2.2,12,5.1v-4.4h7.4v33.4c0,12-8.4,18.2-18.1,18.2c-7.4,0-11.8-2.7-14.2-3.9l1.6-6.4
		c2.4,1.5,6.7,3.9,12.5,3.9c5.7,0,10.7-3.1,10.7-10.3v-4.7c-2.7,2.8-6.9,5.1-12,5.1c-10.7,0-17.9-8.1-17.9-17.9
		C525.8,65.9,532.9,57.8,543.7,57.8z M545.7,87.3c4.1,0,7.8-2,10-4.2V68.7c-2-2.2-5.8-4.4-10-4.4c-7.5,0-12.3,5-12.3,11.5
		C533.4,82.3,538.2,87.3,545.7,87.3z"/>
	<path class="st0" d="M576.4,60.4c3.6-1.5,8.9-2.6,13.7-2.6c10.7,0,15.1,6.2,15.1,14.3v23.8h-7.4v-4.1c-2.6,2.5-6.4,4.8-12,4.8
		c-8,0-12.7-4.4-12.7-11.2c0-9,7.2-13.2,17.6-13.2c2.6,0,5,0.3,7.1,0.7v-0.4c0-5.6-2.7-8.2-8.2-8.2c-3.9,0-8.5,1.1-11.7,2.6
		L576.4,60.4z M588,90.7c4.4,0,7.7-2.1,9.7-3.8v-8.7c-1.4-0.4-3.5-0.6-5.6-0.6c-6.6,0-11.7,2.1-11.7,7
		C580.5,88.7,583.5,90.7,588,90.7z"/>
	<path class="st0" d="M660.6,89.7c6.7,0,11.9-2.5,15.5-5.8l3.6,5.3c-4.9,4.9-11.5,7.4-19.1,7.4c-14.5,0-25.4-10.8-25.4-25.1
		s10.9-25.1,25.4-25.1c7.6,0,14.2,2.6,19.1,7.4l-3.6,5.3c-3.6-3.3-8.7-5.8-15.5-5.8c-10.3,0-17.7,7.9-17.7,18.1
		S650.3,89.7,660.6,89.7z"/>
	<path class="st0" d="M692.4,43.8c2.6,0,4.4,1.1,4.4,4c0,3-1.8,4.1-4.4,4.1c-2.7,0-4.6-1.1-4.6-4.1
		C687.8,44.9,689.7,43.8,692.4,43.8z M688.6,58.5h7.4v37.5h-7.4V58.5z"/>
	<path class="st0" d="M719,49v9.5h14.6v5.9H719V83c0,4.9,2.1,7.2,6,7.2c2.9,0,6.2-1.4,8.3-2.9l2.4,5.8c-3.4,2.1-7.8,3.6-13,3.6
		c-6.9,0-11.2-4.2-11.2-12.2V64.4h-7v-5.9h7l0.9-9.5H719z"/>
	<path class="st0" d="M780.5,58.5l-16.3,39c-3.4,8.3-6.9,12.7-14.7,12.7c-3.7,0-6.7-1.4-8.6-2.6l1.2-6.1c1.9,1.1,4.3,2.3,7.4,2.3
		c3.9,0,5.7-2.1,7.4-6l1-2.4l-17.5-36.8h8.2l12.6,29.3L773,58.5H780.5z"/>
	<path class="st0" d="M180.8,109.3h18.8c10.2,0,16.5,4,16.5,12.7c0,5.4-3.2,9-8.2,10.6c7.4,1.3,12,5.2,12,12.5
		c0,7.9-5.9,12.9-17.1,12.9h-22.1V109.3z M198.2,129.9c6.2,0,10.2-2.1,10.2-6.9c0-5.3-3.7-7.2-9.8-7.2h-10.4v14.1H198.2z
		 M201.9,151.6c6.7,0,10.2-2.5,10.2-7.3c0-5.6-4.2-7.8-11.4-7.8h-12.5v15.1H201.9z"/>
	<path class="st0" d="M229.7,122.5c3.6-1.5,8.9-2.6,13.7-2.6c10.7,0,15.1,6.2,15.1,14.3V158H251v-4.1c-2.6,2.5-6.4,4.8-12,4.8
		c-8,0-12.7-4.4-12.7-11.2c0-9,7.2-13.2,17.6-13.2c2.6,0,5,0.3,7.1,0.7v-0.4c0-5.6-2.7-8.2-8.2-8.2c-3.9,0-8.5,1.1-11.7,2.6
		L229.7,122.5z M241.4,152.8c4.4,0,7.7-2.1,9.7-3.8v-8.7c-1.4-0.4-3.5-0.6-5.6-0.6c-6.6,0-11.7,2.1-11.7,7
		C233.8,150.8,236.8,152.8,241.4,152.8z"/>
	<path class="st0" d="M288.7,158.7c-5.2,0-9.2-2.1-12-4.8v17.5h-7.4v-50.9h7.4v4.4c2.6-2.9,6.7-5.1,12-5.1
		c10.7,0,17.9,8.1,17.9,19.5C306.6,150.6,299.4,158.7,288.7,158.7z M286.8,126.4c-4.3,0-8.2,2.1-10,4.4V148c2.1,2.2,5.9,4.2,10,4.2
		c7.4,0,12.3-5.2,12.3-12.8C299.1,131.7,294.3,126.4,286.8,126.4z"/>
	<path class="st0" d="M325.3,111v9.5h14.6v5.9h-14.6v18.6c0,4.9,2.1,7.2,6,7.2c2.9,0,6.2-1.4,8.3-2.9l2.4,5.8
		c-3.4,2.1-7.8,3.6-13,3.6c-6.9,0-11.2-4.2-11.2-12.2v-20.1h-7v-5.9h7l0.9-9.5H325.3z"/>
	<path class="st0" d="M352.5,105.9c2.6,0,4.4,1.1,4.4,4c0,3-1.8,4.1-4.4,4.1c-2.7,0-4.6-1.1-4.6-4.1
		C347.9,107,349.8,105.9,352.5,105.9z M348.7,120.6h7.4V158h-7.4V120.6z"/>
	<path class="st0" d="M391.9,129.1c-3.2-1.6-7.7-2.9-11.7-2.9c-4.7,0-7.3,1.6-7.3,4.9c0,2.6,1.5,3.2,5.4,4.2l6.2,1.5
		c7.6,1.8,10.7,5.2,10.7,10.5c0,6.9-6.1,11.5-15.5,11.5c-6.4,0-11.4-1.8-14.2-3.2l1.4-6.4c3.1,1.6,7.6,3.4,12.5,3.4
		c4.9,0,8.3-1.7,8.3-4.8c0-2.3-2.2-3.6-6-4.5l-5.9-1.4c-7.2-1.7-10.3-4.5-10.3-10.1c0-7,5.4-11.7,15.3-11.7c4.8,0,10.3,1.4,13.2,2.7
		L391.9,129.1z"/>
	<path class="st0" d="M414.9,111v9.5h14.6v5.9h-14.6v18.6c0,4.9,2.1,7.2,6,7.2c2.9,0,6.2-1.4,8.3-2.9l2.4,5.8
		c-3.4,2.1-7.8,3.6-13,3.6c-6.9,0-11.2-4.2-11.2-12.2v-20.1h-7v-5.9h7l0.9-9.5H414.9z"/>
	<path class="st0" d="M479.8,151.8c6.7,0,11.9-2.5,15.5-5.8l3.6,5.3c-4.9,4.9-11.5,7.4-19.1,7.4c-14.5,0-25.4-10.8-25.4-25.1
		c0-14.3,10.9-25.1,25.4-25.1c7.6,0,14.2,2.6,19.1,7.4l-3.6,5.3c-3.6-3.3-8.7-5.8-15.5-5.8c-10.3,0-17.7,7.9-17.7,18.1
		S469.5,151.8,479.8,151.8z"/>
	<path class="st0" d="M513.8,107.2v19.1c2.8-3.9,7.4-6.3,13.4-6.3c10.2,0,14.6,7.2,14.6,16.5V158h-7.4v-20.4
		c0-6.4-2.9-10.8-9.5-10.8c-5.9,0-9.7,4-11,8.1V158h-7.4v-50.9H513.8z"/>
	<path class="st0" d="M580,158v-5.8c-2.8,3.9-7.3,6.4-13.3,6.4c-10.2,0-14.7-7.2-14.7-16.5v-21.6h7.4V141c0,6.4,2.9,10.8,9.7,10.8
		c5.8,0,9.6-4,10.9-8.1v-23.1h7.4V158H580z"/>
	<path class="st0" d="M598.5,120.6h7.4v7.4c2.3-4.8,5.6-8,10.7-8c3.3,0,5.8,1.1,7.9,2.7l-2.9,6.2c-1.6-1.1-3.9-2-6.2-2
		c-4.9,0-8.2,3.9-9.6,8.5V158h-7.4V120.6z"/>
	<path class="st0" d="M647.3,119.6c5.7,0,10.6,2,14.1,5.2l-3.7,5.5c-2.3-2.1-5.6-3.8-10.1-3.8c-7.6,0-12.7,5.4-12.7,12.8
		c0,7.4,5.2,12.9,12.7,12.9c4.5,0,7.8-1.6,10.1-3.8l3.7,5.5c-3.5,3.2-8.4,5.2-14.1,5.2c-11.8,0-20.1-8.5-20.1-19.8
		C627.2,128,635.5,119.6,647.3,119.6z"/>
	<path class="st0" d="M676.6,107.2v19.1c2.8-3.9,7.4-6.3,13.4-6.3c10.2,0,14.6,7.2,14.6,16.5V158h-7.4v-20.4
		c0-6.4-2.9-10.8-9.5-10.8c-5.9,0-9.7,4-11,8.1V158h-7.4v-50.9H676.6z"/>
</g>
<g>
	<circle class="st1" cx="79.8" cy="25.5" r="6"/>
	<circle class="st1" cx="79.8" cy="69.2" r="2.6"/>
	<circle class="st1" cx="79.8" cy="43.3" r="4.7"/>
	<circle class="st1" cx="79.8" cy="59.4" r="3.7"/>
	<g>
		<circle class="st1" cx="66.8" cy="174.5" r="6"/>
		<circle class="st1" cx="92.8" cy="174.5" r="6"/>
	</g>
	<g>
		<circle class="st1" cx="53.2" cy="165.4" r="6"/>
		<circle class="st1" cx="106.3" cy="165.4" r="6"/>
	</g>
	<g>
		<circle class="st1" cx="41.7" cy="154.7" r="6"/>
		<circle class="st1" cx="117.9" cy="154.7" r="6"/>
	</g>
	<g>
		<circle class="st1" cx="32.3" cy="142" r="6"/>
		<circle class="st1" cx="127.2" cy="142" r="6"/>
	</g>
	<g>
		<circle class="st1" cx="27.7" cy="127.3" r="6"/>
		<circle class="st1" cx="131.8" cy="127.3" r="6"/>
	</g>
	<g>
		<circle class="st1" cx="32.2" cy="80.4" r="6"/>
		<circle class="st1" cx="127.4" cy="80.4" r="6"/>
	</g>
	<g>
		<circle class="st1" cx="39.7" cy="65" r="6"/>
		<circle class="st1" cx="119.9" cy="65" r="6"/>
	</g>
	<g>
		<circle class="st1" cx="65.2" cy="37.1" r="6"/>
		<circle class="st1" cx="94.4" cy="37.1" r="6"/>
	</g>
	<g>
		<path class="st1" d="M25.5,118L25.5,118c3.3,0,6-2.7,6-6c0-3.3-2.7-6-6-6h0l0,0c-2.5,0-4.6,1.5-5.5,3.7c-0.3,0.7-0.5,1.5-0.5,2.3
			c0,0.8,0.2,1.6,0.5,2.3C20.9,116.5,23,118,25.5,118L25.5,118z"/>
		<path class="st1" d="M134.1,118L134.1,118c-3.3,0-6-2.7-6-6c0-3.3,2.7-6,6-6h0l0,0c2.5,0,4.6,1.5,5.5,3.7c0.3,0.7,0.5,1.5,0.5,2.3
			c0,0.8-0.2,1.6-0.5,2.3C138.7,116.5,136.6,118,134.1,118L134.1,118z"/>
	</g>
	<g>
		<path class="st1" d="M27,101.8L27,101.8L27,101.8c3.3,0,6-2.7,6-6s-2.7-6-6-6h0l0,0c-2.5,0-4.6,1.5-5.5,3.7
			C21.1,94.2,21,95,21,95.8c0,0.8,0.2,1.6,0.5,2.3C22.3,100.3,24.5,101.8,27,101.8z"/>
		<path class="st1" d="M132.6,101.8L132.6,101.8L132.6,101.8c-3.3,0-6-2.7-6-6s2.7-6,6-6h0l0,0c2.5,0,4.6,1.5,5.5,3.7
			c0.3,0.7,0.5,1.5,0.5,2.3c0,0.8-0.2,1.6-0.5,2.3C137.2,100.3,135.1,101.8,132.6,101.8z"/>
	</g>
	<g>
		<circle class="st1" cx="51.2" cy="51.2" r="6"/>
		<circle class="st1" cx="108.3" cy="51.2" r="6"/>
	</g>
	<g>
		
			<ellipse transform="matrix(0.9983 -5.878082e-02 5.878082e-02 0.9983 -6.5801 3.1388)" class="st1" cx="50.1" cy="113.4" rx="3.7" ry="3.7"/>
		
			<ellipse transform="matrix(5.878082e-02 -0.9983 0.9983 5.878082e-02 -10.1495 216.0676)" class="st1" cx="109.5" cy="113.4" rx="3.7" ry="3.7"/>
	</g>
	<g>
		<circle class="st1" cx="51.3" cy="124" r="3.7"/>
		<circle class="st1" cx="108.3" cy="124" r="3.7"/>
	</g>
	<g>
		<circle class="st1" cx="69" cy="148.4" r="3.7"/>
		<circle class="st1" cx="90.6" cy="148.4" r="3.7"/>
	</g>
	<g>
		<circle class="st1" cx="52.7" cy="91.9" r="3.7"/>
		<circle class="st1" cx="106.8" cy="91.9" r="3.7"/>
	</g>
	<g>
		<circle class="st1" cx="69.9" cy="69.2" r="3.7"/>
		<circle class="st1" cx="89.6" cy="69.2" r="3.7"/>
	</g>
	<g>
		<circle class="st1" cx="60.3" cy="81.2" r="3.7"/>
		<circle class="st1" cx="99.3" cy="81.2" r="3.7"/>
	</g>
	<g>
		<circle class="st1" cx="60.9" cy="142" r="3.7"/>
		<circle class="st1" cx="98.7" cy="142" r="3.7"/>
	</g>
	<g>
		<circle class="st1" cx="54.2" cy="134.1" r="3.7"/>
		<circle class="st1" cx="105.4" cy="134.1" r="3.7"/>
	</g>
	<g>
		<circle class="st1" cx="69.9" cy="120.3" r="2.6"/>
		<circle class="st1" cx="89.7" cy="120.3" r="2.6"/>
	</g>
	<g>
		<circle class="st1" cx="69.9" cy="128.2" r="2.6"/>
		<circle class="st1" cx="89.7" cy="128.2" r="2.6"/>
	</g>
	<g>
		<circle class="st1" cx="69.9" cy="113" r="2.6"/>
		<circle class="st1" cx="89.7" cy="113" r="2.6"/>
	</g>
	<g>
		<circle class="st1" cx="69.5" cy="93" r="2.6"/>
		<circle class="st1" cx="90" cy="93" r="2.6"/>
	</g>
	<g>
		<circle class="st1" cx="60.6" cy="113.3" r="3.2"/>
		<circle class="st1" cx="99" cy="113.3" r="3.2"/>
	</g>
	<g>
		<circle class="st1" cx="60.9" cy="122" r="3.2"/>
		<circle class="st1" cx="98.7" cy="122" r="3.2"/>
	</g>
	<g>
		<circle class="st1" cx="62.3" cy="130.7" r="3.2"/>
		<circle class="st1" cx="97.3" cy="130.7" r="3.2"/>
	</g>
	<g>
		<circle class="st1" cx="69.5" cy="85.2" r="2.6"/>
		<circle class="st1" cx="90.1" cy="85.2" r="2.6"/>
	</g>
	<g>
		<circle class="st1" cx="69.5" cy="77.9" r="2.6"/>
		<circle class="st1" cx="90.1" cy="77.9" r="2.6"/>
	</g>
	<g>
		<circle class="st1" cx="61.9" cy="92.5" r="3.2"/>
		<circle class="st1" cx="97.6" cy="92.5" r="3.2"/>
	</g>
	<g>
		<circle class="st1" cx="69.5" cy="137.3" r="3.2"/>
		<circle class="st1" cx="90" cy="137.3" r="3.2"/>
	</g>
	<g>
		<circle class="st1" cx="42.5" cy="88.7" r="4.7"/>
		<circle class="st1" cx="117.1" cy="88.7" r="4.7"/>
	</g>
	<g>
		<circle class="st1" cx="39.3" cy="101.1" r="4.7"/>
		<circle class="st1" cx="120.3" cy="101.1" r="4.7"/>
	</g>
	<g>
		<circle class="st1" cx="38.7" cy="113.7" r="4.7"/>
		<circle class="st1" cx="120.8" cy="113.7" r="4.7"/>
	</g>
	<g>
		<circle class="st1" cx="40.5" cy="126.6" r="4.7"/>
		<circle class="st1" cx="119" cy="126.6" r="4.7"/>
	</g>
	<g>
		<circle class="st1" cx="68.2" cy="160.3" r="4.7"/>
		<circle class="st1" cx="91.4" cy="160.3" r="4.7"/>
	</g>
	<g>
		<circle class="st1" cx="50.1" cy="75.5" r="4.7"/>
		<circle class="st1" cx="109.5" cy="75.5" r="4.7"/>
	</g>
	<g>
		<circle class="st1" cx="59.5" cy="63.4" r="4.7"/>
		<circle class="st1" cx="100" cy="63.4" r="4.7"/>
	</g>
	<g>
		<circle class="st1" cx="69.3" cy="52.6" r="4.7"/>
		<circle class="st1" cx="90.3" cy="52.6" r="4.7"/>
	</g>
	<g>
		<circle class="st1" cx="54.7" cy="151" r="4.7"/>
		<circle class="st1" cx="104.8" cy="151" r="4.7"/>
	</g>
	<g>
		<circle class="st1" cx="45.4" cy="139.9" r="4.7"/>
		<circle class="st1" cx="114.1" cy="139.9" r="4.7"/>
	</g>
</g>
</svg>
