<?xml version="1.0" encoding="utf-8"?>
<!-- Generator: Adobe Illustrator 20.0.0, SVG Export Plug-In . SVG Version: 6.00 Build 0)  -->
<svg version="1.1" id="Layer_1" xmlns="http://www.w3.org/2000/svg" xmlns:xlink="http://www.w3.org/1999/xlink" x="0px" y="0px"
	 viewBox="0 0 162 200" style="enable-background:new 0 0 162 200;" xml:space="preserve">
<style type="text/css">
	.st0{fill:#75B555;}
</style>
<g>
	<g>
		<circle class="st0" cx="79.8" cy="25.5" r="6"/>
		<circle class="st0" cx="79.8" cy="69.2" r="2.6"/>
		<circle class="st0" cx="79.8" cy="43.3" r="4.7"/>
		<circle class="st0" cx="79.8" cy="59.4" r="3.7"/>
		<g>
			<circle class="st0" cx="66.8" cy="174.5" r="6"/>
			<circle class="st0" cx="92.8" cy="174.5" r="6"/>
		</g>
		<g>
			<circle class="st0" cx="53.2" cy="165.4" r="6"/>
			<circle class="st0" cx="106.3" cy="165.4" r="6"/>
		</g>
		<g>
			<circle class="st0" cx="41.7" cy="154.7" r="6"/>
			<circle class="st0" cx="117.9" cy="154.7" r="6"/>
		</g>
		<g>
			<circle class="st0" cx="32.3" cy="142" r="6"/>
			<circle class="st0" cx="127.2" cy="142" r="6"/>
		</g>
		<g>
			<circle class="st0" cx="27.7" cy="127.3" r="6"/>
			<circle class="st0" cx="131.8" cy="127.3" r="6"/>
		</g>
		<g>
			<circle class="st0" cx="32.2" cy="80.4" r="6"/>
			<circle class="st0" cx="127.4" cy="80.4" r="6"/>
		</g>
		<g>
			<circle class="st0" cx="39.7" cy="65" r="6"/>
			<circle class="st0" cx="119.9" cy="65" r="6"/>
		</g>
		<g>
			<circle class="st0" cx="65.2" cy="37.1" r="6"/>
			<circle class="st0" cx="94.4" cy="37.1" r="6"/>
		</g>
		<g>
			<path class="st0" d="M25.5,118L25.5,118c3.3,0,6-2.7,6-6s-2.7-6-6-6l0,0l0,0c-2.5,0-4.6,1.5-5.5,3.7c-0.3,0.7-0.5,1.5-0.5,2.3
				s0.2,1.6,0.5,2.3C20.9,116.5,23,118,25.5,118L25.5,118z"/>
			<path class="st0" d="M134.1,118L134.1,118c-3.3,0-6-2.7-6-6s2.7-6,6-6l0,0l0,0c2.5,0,4.6,1.5,5.5,3.7c0.3,0.7,0.5,1.5,0.5,2.3
				s-0.2,1.6-0.5,2.3C138.7,116.5,136.6,118,134.1,118L134.1,118z"/>
		</g>
		<g>
			<path class="st0" d="M27,101.8L27,101.8L27,101.8c3.3,0,6-2.7,6-6s-2.7-6-6-6l0,0l0,0c-2.5,0-4.6,1.5-5.5,3.7
				C21.1,94.2,21,95,21,95.8s0.2,1.6,0.5,2.3C22.3,100.3,24.5,101.8,27,101.8z"/>
			<path class="st0" d="M132.6,101.8L132.6,101.8L132.6,101.8c-3.3,0-6-2.7-6-6s2.7-6,6-6l0,0l0,0c2.5,0,4.6,1.5,5.5,3.7
				c0.3,0.7,0.5,1.5,0.5,2.3s-0.2,1.6-0.5,2.3C137.2,100.3,135.1,101.8,132.6,101.8z"/>
		</g>
		<g>
			<circle class="st0" cx="51.2" cy="51.2" r="6"/>
			<circle class="st0" cx="108.3" cy="51.2" r="6"/>
		</g>
		<g>
			
				<ellipse transform="matrix(0.9983 -5.877911e-02 5.877911e-02 0.9983 -6.579 3.1409)" class="st0" cx="50.1" cy="113.4" rx="3.7" ry="3.7"/>
			
				<ellipse transform="matrix(5.877911e-02 -0.9983 0.9983 5.877911e-02 -10.1651 216.0577)" class="st0" cx="109.5" cy="113.4" rx="3.7" ry="3.7"/>
		</g>
		<g>
			<circle class="st0" cx="51.3" cy="124" r="3.7"/>
			<circle class="st0" cx="108.3" cy="124" r="3.7"/>
		</g>
		<g>
			<circle class="st0" cx="69" cy="148.4" r="3.7"/>
			<circle class="st0" cx="90.6" cy="148.4" r="3.7"/>
		</g>
		<g>
			<circle class="st0" cx="52.7" cy="91.9" r="3.7"/>
			<circle class="st0" cx="106.8" cy="91.9" r="3.7"/>
		</g>
		<g>
			<circle class="st0" cx="69.9" cy="69.2" r="3.7"/>
			<circle class="st0" cx="89.6" cy="69.2" r="3.7"/>
		</g>
		<g>
			<circle class="st0" cx="60.3" cy="81.2" r="3.7"/>
			<circle class="st0" cx="99.3" cy="81.2" r="3.7"/>
		</g>
		<g>
			<circle class="st0" cx="60.9" cy="142" r="3.7"/>
			<circle class="st0" cx="98.7" cy="142" r="3.7"/>
		</g>
		<g>
			<circle class="st0" cx="54.2" cy="134.1" r="3.7"/>
			<circle class="st0" cx="105.4" cy="134.1" r="3.7"/>
		</g>
		<g>
			<circle class="st0" cx="69.9" cy="120.3" r="2.6"/>
			<circle class="st0" cx="89.7" cy="120.3" r="2.6"/>
		</g>
		<g>
			<circle class="st0" cx="69.9" cy="128.2" r="2.6"/>
			<circle class="st0" cx="89.7" cy="128.2" r="2.6"/>
		</g>
		<g>
			<circle class="st0" cx="69.9" cy="113" r="2.6"/>
			<circle class="st0" cx="89.7" cy="113" r="2.6"/>
		</g>
		<g>
			<circle class="st0" cx="69.5" cy="93" r="2.6"/>
			<circle class="st0" cx="90" cy="93" r="2.6"/>
		</g>
		<g>
			<circle class="st0" cx="60.6" cy="113.3" r="3.2"/>
			<circle class="st0" cx="99" cy="113.3" r="3.2"/>
		</g>
		<g>
			<circle class="st0" cx="60.9" cy="122" r="3.2"/>
			<circle class="st0" cx="98.7" cy="122" r="3.2"/>
		</g>
		<g>
			<circle class="st0" cx="62.3" cy="130.7" r="3.2"/>
			<circle class="st0" cx="97.3" cy="130.7" r="3.2"/>
		</g>
		<g>
			<circle class="st0" cx="69.5" cy="85.2" r="2.6"/>
			<circle class="st0" cx="90.1" cy="85.2" r="2.6"/>
		</g>
		<g>
			<circle class="st0" cx="69.5" cy="77.9" r="2.6"/>
			<circle class="st0" cx="90.1" cy="77.9" r="2.6"/>
		</g>
		<g>
			<circle class="st0" cx="61.9" cy="92.5" r="3.2"/>
			<circle class="st0" cx="97.6" cy="92.5" r="3.2"/>
		</g>
		<g>
			<circle class="st0" cx="69.5" cy="137.3" r="3.2"/>
			<circle class="st0" cx="90" cy="137.3" r="3.2"/>
		</g>
		<g>
			<circle class="st0" cx="42.5" cy="88.7" r="4.7"/>
			<circle class="st0" cx="117.1" cy="88.7" r="4.7"/>
		</g>
		<g>
			<circle class="st0" cx="39.3" cy="101.1" r="4.7"/>
			<circle class="st0" cx="120.3" cy="101.1" r="4.7"/>
		</g>
		<g>
			<circle class="st0" cx="38.7" cy="113.7" r="4.7"/>
			<circle class="st0" cx="120.8" cy="113.7" r="4.7"/>
		</g>
		<g>
			<circle class="st0" cx="40.5" cy="126.6" r="4.7"/>
			<circle class="st0" cx="119" cy="126.6" r="4.7"/>
		</g>
		<g>
			<circle class="st0" cx="68.2" cy="160.3" r="4.7"/>
			<circle class="st0" cx="91.4" cy="160.3" r="4.7"/>
		</g>
		<g>
			<circle class="st0" cx="50.1" cy="75.5" r="4.7"/>
			<circle class="st0" cx="109.5" cy="75.5" r="4.7"/>
		</g>
		<g>
			<circle class="st0" cx="59.5" cy="63.4" r="4.7"/>
			<circle class="st0" cx="100" cy="63.4" r="4.7"/>
		</g>
		<g>
			<circle class="st0" cx="69.3" cy="52.6" r="4.7"/>
			<circle class="st0" cx="90.3" cy="52.6" r="4.7"/>
		</g>
		<g>
			<circle class="st0" cx="54.7" cy="151" r="4.7"/>
			<circle class="st0" cx="104.8" cy="151" r="4.7"/>
		</g>
		<g>
			<circle class="st0" cx="45.4" cy="139.9" r="4.7"/>
			<circle class="st0" cx="114.1" cy="139.9" r="4.7"/>
		</g>
	</g>
</g>
</svg>
