<?xml version="1.0" encoding="utf-8"?>
<!-- Generator: Adobe Illustrator 20.0.0, SVG Export Plug-In . SVG Version: 6.00 Build 0)  -->
<svg version="1.1" id="Layer_1" xmlns="http://www.w3.org/2000/svg" xmlns:xlink="http://www.w3.org/1999/xlink" x="0px" y="0px"
	 viewBox="0 0 180 180" style="enable-background:new 0 0 180 180;" xml:space="preserve">
<style type="text/css">
	.st0{fill:#F3EB36;}
	.st1{fill:#81C55E;}
	.st2{fill:#DAE043;}
	.st3{fill:#A3CF56;}
	.st4{fill:#BA4893;}
	.st5{fill:#BB4A92;}
	.st6{fill:#C74B92;}
	.st7{fill:#D35792;}
	.st8{fill:#CC518E;}
	.st9{fill:#2182BE;}
	.st10{fill:#2E9CA4;}
	.st11{fill:#A65498;}
	.st12{fill:#57AE87;}
	.st13{fill:#51AB8A;}
	.st14{fill:#ACD152;}
	.st15{fill:#74C166;}
	.st16{fill:#CEDC47;}
	.st17{fill:#D6DF46;}
	.st18{fill:#EFE932;}
	.st19{fill:#71BD6C;}
	.st20{fill:#2595AE;}
	.st21{fill:#7BC25E;}
	.st22{fill:#90C95A;}
	.st23{fill:#E3E541;}
	.st24{fill:#258FB7;}
	.st25{fill:#5CB081;}
	.st26{fill:#3081BC;}
	.st27{fill:#42A695;}
	.st28{fill:#AF629E;}
	.st29{fill:#6E7BAE;}
	.st30{fill:#56AD89;}
	.st31{fill:#77C262;}
	.st32{fill:#7AC25E;}
	.st33{fill:#92C958;}
	.st34{fill:#6FBA70;}
	.st35{fill:#8D65A5;}
	.st36{fill:#2486C4;}
	.st37{fill:#6868AB;}
	.st38{fill:#279AA9;}
	.st39{fill:#2292B2;}
	.st40{fill:#36A09F;}
	.st41{fill:#2587C3;}
	.st42{fill:#2695AE;}
	.st43{fill:#2F9DA5;}
	.st44{fill:#46A793;}
	.st45{fill:#60B27C;}
	.st46{fill:#70BC6C;}
	.st47{fill:#2596AD;}
	.st48{fill:#268AC1;}
	.st49{fill:#3BA29B;}
	.st50{fill:#4480B8;}
	.st51{fill:#2697AC;}
	.st52{fill:#6EBC6C;}
	.st53{fill:#76C262;}
	.st54{fill:#82BC00;}
	.st55{fill:#5EB082;}
	.st56{fill:#6C7BAF;}
	.st57{fill:#2487C4;}
	.st58{fill:#51AB8C;}
	.st59{fill:#299AA9;}
	.st60{fill:#76C064;}
	.st61{fill:#68B874;}
	.st62{fill:#47A792;}
	.st63{fill:#BB5A88;}
	.st64{fill:#9DCC57;}
	.st65{fill:#B7D54F;}
	.st66{fill:#ADD151;}
	.st67{fill:#CDDB4B;}
	.st68{fill:#2D81BC;}
	.st69{fill:#975F9B;}
	.st70{fill:#2593AF;}
</style>
<circle class="st0" cx="88.8" cy="15.5" r="6"/>
<circle class="st1" cx="88.8" cy="59.2" r="2.6"/>
<circle class="st2" cx="88.8" cy="33.3" r="4.7"/>
<circle class="st3" cx="88.8" cy="49.4" r="3.7"/>
<circle class="st4" cx="75.8" cy="164.5" r="6"/>
<circle class="st5" cx="101.8" cy="164.5" r="6"/>
<circle class="st6" cx="62.2" cy="155.4" r="6"/>
<circle class="st7" cx="115.3" cy="155.4" r="6"/>
<circle class="st8" cx="50.7" cy="144.7" r="6"/>
<circle class="st9" cx="126.9" cy="144.7" r="6"/>
<circle class="st7" cx="41.3" cy="132" r="6"/>
<circle class="st10" cx="136.2" cy="132" r="6"/>
<circle class="st11" cx="36.7" cy="117.3" r="6"/>
<circle class="st12" cx="140.8" cy="117.3" r="6"/>
<circle class="st13" cx="41.2" cy="70.4" r="6"/>
<circle class="st14" cx="136.4" cy="70.4" r="6"/>
<circle class="st15" cx="48.7" cy="55" r="6"/>
<circle class="st16" cx="128.9" cy="55" r="6"/>
<circle class="st17" cx="74.2" cy="27.1" r="6"/>
<circle class="st18" cx="103.4" cy="27.1" r="6"/>
<path class="st9" d="M34.5,108L34.5,108c3.3,0,6-2.7,6-6s-2.7-6-6-6l0,0l0,0c-2.5,0-4.6,1.5-5.5,3.7c-0.3,0.7-0.5,1.5-0.5,2.3
	s0.2,1.6,0.5,2.3C29.9,106.5,32,108,34.5,108L34.5,108z"/>
<path class="st19" d="M143.1,108L143.1,108c-3.3,0-6-2.7-6-6s2.7-6,6-6l0,0l0,0c2.5,0,4.6,1.5,5.5,3.7c0.3,0.7,0.5,1.5,0.5,2.3
	s-0.2,1.6-0.5,2.3C147.7,106.5,145.6,108,143.1,108L143.1,108z"/>
<path class="st20" d="M36,91.8L36,91.8L36,91.8c3.3,0,6-2.7,6-6s-2.7-6-6-6l0,0l0,0c-2.5,0-4.6,1.5-5.5,3.7C30.1,84.2,30,85,30,85.8
	s0.2,1.6,0.5,2.3C31.3,90.3,33.5,91.8,36,91.8z"/>
<path class="st21" d="M141.6,91.8L141.6,91.8L141.6,91.8c-3.3,0-6-2.7-6-6s2.7-6,6-6l0,0l0,0c2.5,0,4.6,1.5,5.5,3.7
	c0.3,0.7,0.5,1.5,0.5,2.3s-0.2,1.6-0.5,2.3C146.2,90.3,144.1,91.8,141.6,91.8z"/>
<circle class="st22" cx="60.2" cy="41.2" r="6"/>
<circle class="st23" cx="117.3" cy="41.2" r="6"/>
<ellipse transform="matrix(0.9983 -5.877911e-02 5.877911e-02 0.9983 -5.9756 3.6527)" class="st24" cx="59.1" cy="103.4" rx="3.7" ry="3.7"/>
<ellipse transform="matrix(5.877911e-02 -0.9983 0.9983 5.877911e-02 8.2886 215.6299)" class="st25" cx="118.5" cy="103.4" rx="3.7" ry="3.7"/>
<circle class="st26" cx="60.3" cy="114" r="3.7"/>
<circle class="st27" cx="117.3" cy="114" r="3.7"/>
<circle class="st28" cx="78" cy="138.4" r="3.7"/>
<circle class="st29" cx="99.6" cy="138.4" r="3.7"/>
<circle class="st30" cx="61.7" cy="81.9" r="3.7"/>
<circle class="st31" cx="115.8" cy="81.9" r="3.7"/>
<circle class="st32" cx="78.9" cy="59.2" r="3.7"/>
<circle class="st33" cx="98.6" cy="59.2" r="3.7"/>
<circle class="st34" cx="69.3" cy="71.2" r="3.7"/>
<circle class="st21" cx="108.3" cy="71.2" r="3.7"/>
<circle class="st35" cx="69.9" cy="132" r="3.7"/>
<circle class="st36" cx="107.7" cy="132" r="3.7"/>
<circle class="st37" cx="63.2" cy="124.1" r="3.7"/>
<circle class="st38" cx="114.4" cy="124.1" r="3.7"/>
<circle class="st39" cx="78.9" cy="110.3" r="2.6"/>
<circle class="st40" cx="98.7" cy="110.3" r="2.6"/>
<circle class="st41" cx="78.9" cy="118.2" r="2.6"/>
<circle class="st42" cx="98.7" cy="118.2" r="2.6"/>
<circle class="st43" cx="78.9" cy="103" r="2.6"/>
<circle class="st44" cx="98.7" cy="103" r="2.6"/>
<circle class="st45" cx="78.5" cy="83" r="2.6"/>
<circle class="st46" cx="99" cy="83" r="2.6"/>
<circle class="st47" cx="69.6" cy="103.3" r="3.2"/>
<circle class="st30" cx="108" cy="103.3" r="3.2"/>
<circle class="st48" cx="69.9" cy="112" r="3.2"/>
<circle class="st49" cx="107.7" cy="112" r="3.2"/>
<circle class="st50" cx="71.3" cy="120.7" r="3.2"/>
<circle class="st51" cx="106.3" cy="120.7" r="3.2"/>
<circle class="st52" cx="78.5" cy="75.2" r="2.6"/>
<circle class="st53" cx="99.1" cy="75.2" r="2.6"/>
<circle class="st54" cx="78.5" cy="67.9" r="2.6"/>
<circle class="st21" cx="99.1" cy="67.9" r="2.6"/>
<circle class="st55" cx="70.9" cy="82.5" r="3.2"/>
<circle class="st54" cx="106.6" cy="82.5" r="3.2"/>
<circle class="st56" cx="78.5" cy="127.3" r="3.2"/>
<circle class="st57" cx="99" cy="127.3" r="3.2"/>
<circle class="st58" cx="51.5" cy="78.7" r="4.7"/>
<circle class="st21" cx="126.1" cy="78.7" r="4.7"/>
<circle class="st59" cx="48.3" cy="91.1" r="4.7"/>
<circle class="st60" cx="129.3" cy="91.1" r="4.7"/>
<circle class="st26" cx="47.7" cy="103.7" r="4.7"/>
<circle class="st61" cx="129.8" cy="103.7" r="4.7"/>
<circle class="st37" cx="49.5" cy="116.6" r="4.7"/>
<circle class="st62" cx="128" cy="116.6" r="4.7"/>
<circle class="st7" cx="77.2" cy="150.3" r="4.7"/>
<circle class="st63" cx="100.4" cy="150.3" r="4.7"/>
<circle class="st52" cx="59.1" cy="65.5" r="4.7"/>
<circle class="st64" cx="118.5" cy="65.5" r="4.7"/>
<circle class="st21" cx="68.5" cy="53.4" r="4.7"/>
<circle class="st65" cx="109" cy="53.4" r="4.7"/>
<circle class="st66" cx="78.3" cy="42.6" r="4.7"/>
<circle class="st67" cx="99.3" cy="42.6" r="4.7"/>
<circle class="st7" cx="63.7" cy="141" r="4.7"/>
<circle class="st68" cx="113.8" cy="141" r="4.7"/>
<circle class="st69" cx="54.4" cy="129.9" r="4.7"/>
<circle class="st70" cx="123.1" cy="129.9" r="4.7"/>
</svg>
