<?xml version="1.0" encoding="utf-8"?>
<!-- Generator: Adobe Illustrator 20.0.0, SVG Export Plug-In . SVG Version: 6.00 Build 0)  -->
<svg version="1.1" id="Layer_1" xmlns="http://www.w3.org/2000/svg" xmlns:xlink="http://www.w3.org/1999/xlink" x="0px" y="0px"
	 viewBox="0 0 180 180" style="enable-background:new 0 0 180 180;" xml:space="preserve">
<style type="text/css">
	.st0{fill:#FFFFFF;}
</style>
<g>
	<g>
		<circle class="st0" cx="88.8" cy="15.4" r="6"/>
		<circle class="st0" cx="88.8" cy="59.1" r="2.6"/>
		<circle class="st0" cx="88.8" cy="33.2" r="4.7"/>
		<circle class="st0" cx="88.8" cy="49.3" r="3.7"/>
		<g>
			<circle class="st0" cx="75.8" cy="164.4" r="6"/>
			<circle class="st0" cx="101.8" cy="164.4" r="6"/>
		</g>
		<g>
			<circle class="st0" cx="62.2" cy="155.3" r="6"/>
			<circle class="st0" cx="115.3" cy="155.3" r="6"/>
		</g>
		<g>
			<circle class="st0" cx="50.7" cy="144.6" r="6"/>
			<circle class="st0" cx="126.9" cy="144.6" r="6"/>
		</g>
		<g>
			<circle class="st0" cx="41.3" cy="131.9" r="6"/>
			<circle class="st0" cx="136.2" cy="131.9" r="6"/>
		</g>
		<g>
			<circle class="st0" cx="36.7" cy="117.2" r="6"/>
			<circle class="st0" cx="140.8" cy="117.2" r="6"/>
		</g>
		<g>
			<circle class="st0" cx="41.2" cy="70.3" r="6"/>
			<circle class="st0" cx="136.4" cy="70.3" r="6"/>
		</g>
		<g>
			<circle class="st0" cx="48.7" cy="54.9" r="6"/>
			<circle class="st0" cx="128.9" cy="54.9" r="6"/>
		</g>
		<g>
			<circle class="st0" cx="74.2" cy="27" r="6"/>
			<circle class="st0" cx="103.4" cy="27" r="6"/>
		</g>
		<g>
			<path class="st0" d="M34.5,107.9L34.5,107.9c3.3,0,6-2.7,6-6s-2.7-6-6-6l0,0l0,0c-2.5,0-4.6,1.5-5.5,3.7
				c-0.3,0.7-0.5,1.5-0.5,2.3s0.2,1.6,0.5,2.3C29.9,106.4,32,107.9,34.5,107.9L34.5,107.9z"/>
			<path class="st0" d="M143.1,107.9L143.1,107.9c-3.3,0-6-2.7-6-6s2.7-6,6-6l0,0l0,0c2.5,0,4.6,1.5,5.5,3.7
				c0.3,0.7,0.5,1.5,0.5,2.3s-0.2,1.6-0.5,2.3C147.7,106.4,145.6,107.9,143.1,107.9L143.1,107.9z"/>
		</g>
		<g>
			<path class="st0" d="M36,91.7L36,91.7L36,91.7c3.3,0,6-2.7,6-6s-2.7-6-6-6l0,0l0,0c-2.5,0-4.6,1.5-5.5,3.7
				c-0.4,0.7-0.5,1.5-0.5,2.3s0.2,1.6,0.5,2.3C31.3,90.2,33.5,91.7,36,91.7z"/>
			<path class="st0" d="M141.6,91.7L141.6,91.7L141.6,91.7c-3.3,0-6-2.7-6-6s2.7-6,6-6l0,0l0,0c2.5,0,4.6,1.5,5.5,3.7
				c0.3,0.7,0.5,1.5,0.5,2.3s-0.2,1.6-0.5,2.3C146.2,90.2,144.1,91.7,141.6,91.7z"/>
		</g>
		<g>
			<circle class="st0" cx="60.2" cy="41.1" r="6"/>
			<circle class="st0" cx="117.3" cy="41.1" r="6"/>
		</g>
		<g>
			
				<ellipse transform="matrix(0.9983 -5.877911e-02 5.877911e-02 0.9983 -5.9709 3.6525)" class="st0" cx="59.1" cy="103.3" rx="3.7" ry="3.7"/>
			
				<ellipse transform="matrix(5.877911e-02 -0.9983 0.9983 5.877911e-02 8.3684 215.5546)" class="st0" cx="118.5" cy="103.3" rx="3.7" ry="3.7"/>
		</g>
		<g>
			<circle class="st0" cx="60.3" cy="113.9" r="3.7"/>
			<circle class="st0" cx="117.3" cy="113.9" r="3.7"/>
		</g>
		<g>
			<circle class="st0" cx="78" cy="138.3" r="3.7"/>
			<circle class="st0" cx="99.6" cy="138.3" r="3.7"/>
		</g>
		<g>
			<circle class="st0" cx="61.7" cy="81.8" r="3.7"/>
			<circle class="st0" cx="115.8" cy="81.8" r="3.7"/>
		</g>
		<g>
			<circle class="st0" cx="78.9" cy="59.1" r="3.7"/>
			<circle class="st0" cx="98.6" cy="59.1" r="3.7"/>
		</g>
		<g>
			<circle class="st0" cx="69.3" cy="71.1" r="3.7"/>
			<circle class="st0" cx="108.3" cy="71.1" r="3.7"/>
		</g>
		<g>
			<circle class="st0" cx="69.9" cy="131.9" r="3.7"/>
			<circle class="st0" cx="107.7" cy="131.9" r="3.7"/>
		</g>
		<g>
			<circle class="st0" cx="63.2" cy="124" r="3.7"/>
			<circle class="st0" cx="114.4" cy="124" r="3.7"/>
		</g>
		<g>
			<circle class="st0" cx="78.9" cy="110.2" r="2.6"/>
			<circle class="st0" cx="98.7" cy="110.2" r="2.6"/>
		</g>
		<g>
			<circle class="st0" cx="78.9" cy="118.1" r="2.6"/>
			<circle class="st0" cx="98.7" cy="118.1" r="2.6"/>
		</g>
		<g>
			<circle class="st0" cx="78.9" cy="102.9" r="2.6"/>
			<circle class="st0" cx="98.7" cy="102.9" r="2.6"/>
		</g>
		<g>
			<circle class="st0" cx="78.5" cy="82.9" r="2.6"/>
			<circle class="st0" cx="99" cy="82.9" r="2.6"/>
		</g>
		<g>
			<circle class="st0" cx="69.6" cy="103.2" r="3.2"/>
			<circle class="st0" cx="108" cy="103.2" r="3.2"/>
		</g>
		<g>
			<circle class="st0" cx="69.9" cy="111.9" r="3.2"/>
			<circle class="st0" cx="107.7" cy="111.9" r="3.2"/>
		</g>
		<g>
			<circle class="st0" cx="71.3" cy="120.6" r="3.2"/>
			<circle class="st0" cx="106.3" cy="120.6" r="3.2"/>
		</g>
		<g>
			<circle class="st0" cx="78.5" cy="75.1" r="2.6"/>
			<circle class="st0" cx="99.1" cy="75.1" r="2.6"/>
		</g>
		<g>
			<circle class="st0" cx="78.5" cy="67.8" r="2.6"/>
			<circle class="st0" cx="99.1" cy="67.8" r="2.6"/>
		</g>
		<g>
			<circle class="st0" cx="70.9" cy="82.4" r="3.2"/>
			<circle class="st0" cx="106.6" cy="82.4" r="3.2"/>
		</g>
		<g>
			<circle class="st0" cx="78.5" cy="127.2" r="3.2"/>
			<circle class="st0" cx="99" cy="127.2" r="3.2"/>
		</g>
		<g>
			<circle class="st0" cx="51.5" cy="78.6" r="4.7"/>
			<circle class="st0" cx="126.1" cy="78.6" r="4.7"/>
		</g>
		<g>
			<circle class="st0" cx="48.3" cy="91" r="4.7"/>
			<circle class="st0" cx="129.3" cy="91" r="4.7"/>
		</g>
		<g>
			<circle class="st0" cx="47.7" cy="103.6" r="4.7"/>
			<circle class="st0" cx="129.8" cy="103.6" r="4.7"/>
		</g>
		<g>
			<circle class="st0" cx="49.5" cy="116.5" r="4.7"/>
			<circle class="st0" cx="128" cy="116.5" r="4.7"/>
		</g>
		<g>
			<circle class="st0" cx="77.2" cy="150.2" r="4.7"/>
			<circle class="st0" cx="100.4" cy="150.2" r="4.7"/>
		</g>
		<g>
			<circle class="st0" cx="59.1" cy="65.4" r="4.7"/>
			<circle class="st0" cx="118.5" cy="65.4" r="4.7"/>
		</g>
		<g>
			<circle class="st0" cx="68.5" cy="53.3" r="4.7"/>
			<circle class="st0" cx="109" cy="53.3" r="4.7"/>
		</g>
		<g>
			<circle class="st0" cx="78.3" cy="42.5" r="4.7"/>
			<circle class="st0" cx="99.3" cy="42.5" r="4.7"/>
		</g>
		<g>
			<circle class="st0" cx="63.7" cy="140.9" r="4.7"/>
			<circle class="st0" cx="113.8" cy="140.9" r="4.7"/>
		</g>
		<g>
			<circle class="st0" cx="54.4" cy="129.8" r="4.7"/>
			<circle class="st0" cx="123.1" cy="129.8" r="4.7"/>
		</g>
	</g>
</g>
</svg>
