<?xml version="1.0" standalone="no"?>
<!DOCTYPE svg PUBLIC "-//W3C//DTD SVG 20010904//EN"
 "http://www.w3.org/TR/2001/REC-SVG-20010904/DTD/svg10.dtd">
<svg version="1.0" xmlns="http://www.w3.org/2000/svg"
 width="700.000000pt" height="700.000000pt" viewBox="0 0 700.000000 700.000000"
 preserveAspectRatio="xMidYMid meet">
<metadata>
Created by potrace 1.11, written by Peter Selinger 2001-2013
</metadata>
<g transform="translate(0.000000,700.000000) scale(0.100000,-0.100000)"
fill="#000000" stroke="none">
<path d="M3350 6603 c-146 -72 -174 -262 -55 -372 95 -88 228 -87 320 3 68 66
90 176 50 259 -56 118 -199 168 -315 110z"/>
<path d="M2835 6174 c-181 -46 -242 -270 -108 -396 140 -133 375 -42 388 149
7 92 -47 187 -128 230 -31 15 -118 25 -152 17z"/>
<path d="M3924 6156 c-151 -70 -180 -265 -57 -381 143 -135 382 -31 384 167 2
172 -172 286 -327 214z"/>
<path d="M3373 5865 c-165 -80 -115 -325 70 -340 98 -8 181 65 190 167 13 140
-130 235 -260 173z"/>
<path d="M2243 5607 c-80 -41 -123 -102 -130 -188 -18 -198 197 -322 362 -209
121 83 130 257 20 357 -72 66 -170 81 -252 40z"/>
<path d="M4485 5618 c-106 -37 -173 -156 -151 -271 18 -99 120 -179 226 -179
131 0 231 97 232 225 2 159 -158 277 -307 225z"/>
<path d="M2990 5514 c-186 -56 -155 -328 39 -351 157 -18 257 175 155 297 -49
58 -118 77 -194 54z"/>
<path d="M3822 5520 c-115 -27 -173 -150 -121 -258 82 -169 341 -108 341 81 0
117 -107 203 -220 177z"/>
<path d="M3383 5204 c-55 -27 -87 -116 -64 -177 11 -29 63 -79 88 -85 46 -10
97 -1 129 23 41 31 55 56 59 104 9 109 -110 185 -212 135z"/>
<path d="M2645 5105 c-5 -2 -22 -6 -37 -9 -41 -9 -95 -61 -113 -110 -49 -129
61 -262 200 -242 47 8 107 52 131 97 45 88 5 208 -82 245 -35 15 -83 24 -99
19z"/>
<path d="M4165 5089 c-51 -25 -63 -37 -87 -83 -29 -56 -22 -141 16 -190 37
-50 80 -70 147 -70 183 -1 246 244 86 335 -50 28 -114 31 -162 8z"/>
<path d="M1865 5092 c-124 -22 -199 -109 -199 -232 0 -148 111 -244 261 -226
147 17 236 170 181 311 -22 56 -47 86 -95 116 -33 21 -113 37 -148 31z"/>
<path d="M4973 5089 c-146 -26 -232 -183 -173 -316 27 -61 53 -89 112 -119
150 -76 326 33 330 204 4 146 -124 256 -269 231z"/>
<path d="M3000 4821 c-82 -44 -98 -154 -32 -224 61 -65 174 -52 223 26 28 45
22 127 -12 163 -52 56 -117 69 -179 35z"/>
<path d="M3759 4817 c-67 -44 -86 -136 -43 -202 23 -35 91 -65 134 -59 101 15
160 136 106 219 -42 64 -134 84 -197 42z"/>
<path d="M3408 4785 c-49 -27 -66 -79 -41 -131 41 -90 183 -58 183 41 0 20 -5
45 -10 55 -22 41 -89 58 -132 35z"/>
<path d="M2265 4632 c-52 -7 -112 -56 -134 -109 -50 -123 43 -256 175 -249 65
4 108 27 142 78 37 57 38 148 2 201 -40 58 -112 89 -185 79z"/>
<path d="M4558 4626 c-58 -21 -86 -43 -108 -86 -51 -100 -11 -211 92 -254 43
-19 69 -20 119 -6 69 19 129 96 129 166 0 126 -120 219 -232 180z"/>
<path d="M1557 4489 c-55 -13 -89 -33 -130 -78 -59 -66 -73 -159 -36 -241 25
-55 42 -75 94 -109 34 -22 51 -26 115 -26 82 0 115 13 164 61 86 87 92 226 14
319 -49 58 -146 90 -221 74z"/>
<path d="M5275 4492 c-111 -20 -187 -96 -200 -201 -25 -194 194 -330 356 -221
46 31 85 80 96 121 13 51 6 135 -15 176 -44 85 -150 141 -237 125z"/>
<path d="M3020 4453 c-55 -20 -81 -82 -55 -136 29 -63 103 -76 154 -28 76 71
-1 200 -99 164z"/>
<path d="M3813 4450 c-33 -14 -62 -66 -57 -104 5 -43 54 -86 98 -86 88 0 132
115 67 174 -23 21 -78 29 -108 16z"/>
<path d="M2655 4369 c-87 -23 -130 -140 -80 -216 43 -65 142 -83 203 -37 126
96 30 293 -123 253z"/>
<path d="M4167 4365 c-48 -16 -62 -28 -81 -69 -48 -101 19 -206 131 -206 50 0
98 30 120 77 20 41 21 49 10 104 -15 73 -105 121 -180 94z"/>
<path d="M3013 4165 c-46 -20 -68 -68 -54 -117 33 -109 191 -86 191 28 0 31
-6 48 -26 68 -15 14 -32 26 -40 26 -7 0 -18 2 -26 5 -7 2 -27 -2 -45 -10z"/>
<path d="M3835 4172 c-62 -13 -96 -80 -69 -137 30 -63 107 -77 155 -28 69 71
10 184 -86 165z"/>
<path d="M1945 4113 c-62 -16 -125 -105 -125 -174 0 -19 9 -53 19 -75 63 -139
272 -137 329 2 34 81 7 175 -64 223 -35 24 -114 36 -159 24z"/>
<path d="M4808 4091 c-55 -35 -79 -76 -83 -141 -8 -105 74 -192 180 -192 96 0
177 81 179 177 1 103 -67 176 -172 183 -50 3 -63 0 -104 -27z"/>
<path d="M2345 3946 c-112 -50 -117 -204 -9 -256 69 -34 131 -19 179 44 83
109 -45 269 -170 212z"/>
<path d="M4444 3946 c-92 -41 -111 -175 -34 -240 44 -36 92 -43 149 -20 102
42 116 179 26 246 -32 24 -103 31 -141 14z"/>
<path d="M2715 3906 c-94 -42 -109 -156 -27 -215 78 -55 192 4 192 99 0 86
-90 150 -165 116z"/>
<path d="M4093 3900 c-120 -54 -76 -230 58 -230 52 0 107 48 115 101 11 68
-42 137 -112 145 -12 1 -39 -6 -61 -16z"/>
<path d="M1329 3884 c-83 -25 -157 -122 -160 -211 -5 -131 104 -243 237 -243
46 0 130 37 161 71 161 179 -8 452 -238 383z"/>
<path d="M5440 3884 c-173 -51 -220 -273 -85 -392 144 -127 355 -43 381 151 8
59 -15 125 -64 179 -59 65 -145 88 -232 62z"/>
<path d="M3000 3857 c-48 -39 -59 -87 -30 -135 26 -43 64 -57 111 -43 106 32
83 192 -28 191 -21 0 -45 -6 -53 -13z"/>
<path d="M3786 3847 c-38 -31 -46 -103 -14 -137 46 -49 110 -49 153 2 36 42
34 88 -6 127 -39 39 -90 42 -133 8z"/>
<path d="M1810 3625 c-114 -52 -149 -194 -70 -288 48 -59 157 -77 227 -38 61
35 88 83 88 156 0 105 -59 170 -163 181 -30 3 -59 -1 -82 -11z"/>
<path d="M4965 3628 c-71 -25 -119 -100 -118 -184 2 -125 156 -208 269 -145
123 69 124 254 0 318 -37 19 -113 25 -151 11z"/>
<path d="M1273 3256 c-122 -42 -193 -186 -148 -301 45 -119 178 -183 292 -140
239 89 188 436 -67 449 -25 2 -60 -2 -77 -8z"/>
<path d="M5510 3260 c-130 -36 -204 -169 -165 -296 47 -157 251 -214 372 -104
121 109 95 307 -48 381 -42 21 -118 30 -159 19z"/>
<path d="M1772 3128 c-79 -41 -119 -147 -85 -228 37 -91 126 -133 223 -104
120 36 165 180 88 285 -48 64 -152 86 -226 47z"/>
<path d="M4985 3139 c-91 -34 -141 -143 -106 -234 20 -55 63 -94 117 -111 150
-45 282 111 214 251 -40 82 -141 124 -225 94z"/>
<path d="M2223 3100 c-71 -43 -88 -150 -34 -214 25 -29 89 -54 125 -49 138 21
173 208 49 268 -43 21 -102 19 -140 -5z"/>
<path d="M4540 3102 c-54 -27 -76 -76 -71 -159 1 -28 47 -82 80 -95 68 -27
144 -3 182 59 26 42 23 116 -7 156 -40 55 -119 72 -184 39z"/>
<path d="M2672 3102 c-25 -8 -81 -58 -84 -75 -10 -76 11 -126 65 -153 96 -50
209 55 167 156 -22 54 -93 88 -148 72z"/>
<path d="M4151 3093 c-68 -35 -91 -97 -60 -160 60 -122 235 -78 231 58 -2 83
-98 139 -171 102z"/>
<path d="M3033 3085 c-67 -28 -83 -102 -34 -157 24 -27 35 -32 70 -31 47 1 73
19 91 64 32 77 -50 156 -127 124z"/>
<path d="M3803 3085 c-65 -27 -83 -100 -38 -153 30 -36 69 -45 112 -27 50 21
70 68 52 122 -18 55 -73 80 -126 58z"/>
<path d="M3024 2800 c-49 -19 -69 -97 -38 -145 17 -26 68 -47 102 -42 12 2 33
13 46 26 83 78 -3 204 -110 161z"/>
<path d="M3771 2779 c-89 -88 32 -224 127 -144 39 33 48 74 27 118 -30 64
-104 76 -154 26z"/>
<path d="M2680 2762 c-108 -48 -114 -178 -11 -228 78 -38 171 22 171 110 0 83
-90 149 -160 118z"/>
<path d="M4150 2762 c-58 -27 -94 -88 -84 -140 9 -43 55 -89 98 -98 48 -8 106
17 129 56 44 74 -4 175 -88 185 -22 2 -47 1 -55 -3z"/>
<path d="M2284 2696 c-121 -55 -99 -243 32 -269 113 -22 206 96 157 198 -10
21 -30 47 -44 58 -34 25 -105 31 -145 13z"/>
<path d="M4484 2684 c-89 -58 -84 -192 8 -240 70 -36 136 -21 183 41 23 29 28
46 27 85 -2 115 -121 177 -218 114z"/>
<path d="M1335 2650 c-66 -31 -121 -92 -130 -142 -19 -106 0 -179 61 -235 50
-46 97 -65 160 -65 167 -1 281 172 213 322 -26 58 -53 87 -111 116 -59 30
-136 32 -193 4z"/>
<path d="M5383 2651 c-61 -28 -104 -74 -124 -133 -53 -156 52 -308 215 -310
196 -3 301 218 180 378 -55 74 -183 104 -271 65z"/>
<path d="M1877 2642 c-15 -4 -43 -20 -63 -36 -128 -102 -70 -301 92 -319 81
-10 151 33 186 113 57 132 -71 277 -215 242z"/>
<path d="M4916 2636 c-120 -44 -159 -197 -73 -289 44 -47 71 -59 131 -60 164
-1 244 182 134 305 -44 49 -126 68 -192 44z"/>
<path d="M3033 2495 c-81 -34 -85 -143 -7 -180 85 -40 173 50 129 134 -24 48
-73 66 -122 46z"/>
<path d="M3769 2471 c-45 -45 -36 -123 18 -152 82 -44 172 28 143 115 -23 72
-107 91 -161 37z"/>
<path d="M2709 2407 c-61 -41 -76 -105 -39 -165 20 -32 71 -62 106 -62 28 0
82 31 99 56 38 58 19 137 -40 174 -42 26 -84 25 -126 -3z"/>
<path d="M4073 2410 c-86 -52 -80 -170 11 -214 102 -48 208 58 160 160 -33 69
-108 93 -171 54z"/>
<path d="M2394 2300 c-101 -51 -104 -198 -4 -251 123 -67 256 65 192 190 -36
72 -115 97 -188 61z"/>
<path d="M4394 2305 c-83 -35 -112 -136 -61 -212 78 -116 257 -57 257 84 0 43
-28 94 -63 118 -32 21 -96 26 -133 10z"/>
<path d="M3002 2159 c-96 -48 -95 -175 1 -219 125 -57 233 105 133 199 -37 35
-88 42 -134 20z"/>
<path d="M3767 2136 c-54 -54 -55 -117 -2 -170 53 -53 116 -54 169 -1 40 40
49 82 26 133 -22 49 -58 72 -114 72 -38 0 -51 -5 -79 -34z"/>
<path d="M2045 2116 c-105 -47 -143 -178 -78 -270 41 -58 85 -78 159 -74 74 5
126 39 154 101 67 148 -89 308 -235 243z"/>
<path d="M4724 2119 c-59 -17 -113 -89 -118 -157 -5 -72 33 -140 99 -174 95
-49 212 -4 251 97 55 144 -78 279 -232 234z"/>
<path d="M1518 2081 c-117 -54 -171 -180 -127 -295 72 -191 335 -202 425 -18
24 49 24 154 0 201 -22 41 -66 85 -109 108 -45 23 -142 25 -189 4z"/>
<path d="M5225 2088 c-100 -37 -159 -120 -158 -225 1 -100 55 -177 149 -212
150 -57 304 48 310 210 4 90 -45 172 -128 215 -40 21 -133 27 -173 12z"/>
<path d="M2653 1994 c-45 -23 -76 -75 -76 -131 0 -110 132 -178 221 -114 143
102 12 322 -145 245z"/>
<path d="M4123 1993 c-52 -30 -74 -66 -75 -124 0 -84 58 -143 140 -143 136 0
191 157 89 252 -34 32 -111 39 -154 15z"/>
<path d="M2962 1740 c-98 -60 -94 -193 8 -247 132 -70 265 87 178 210 -40 56
-127 73 -186 37z"/>
<path d="M3799 1737 c-95 -63 -89 -193 11 -244 51 -26 98 -23 147 10 40 27 58
68 56 124 -4 106 -126 169 -214 110z"/>
<path d="M2410 1684 c-72 -31 -112 -89 -112 -164 0 -202 269 -255 349 -70 17
41 12 109 -11 156 -37 73 -147 111 -226 78z"/>
<path d="M4375 1692 c-134 -47 -174 -216 -73 -309 55 -51 148 -62 210 -26 17
10 45 35 61 56 27 33 31 46 31 101 1 71 -22 116 -79 155 -34 23 -115 35 -150
23z"/>
<path d="M1909 1596 c-202 -61 -230 -332 -44 -428 55 -29 143 -32 198 -9 156
68 188 287 58 390 -64 51 -141 68 -212 47z"/>
<path d="M4855 1589 c-90 -34 -146 -112 -150 -209 -3 -89 41 -167 119 -212 51
-29 163 -32 212 -6 117 63 163 203 105 317 -53 103 -178 151 -286 110z"/>
<path d="M2944 1329 c-40 -11 -100 -72 -115 -117 -15 -47 -6 -115 21 -156 67
-96 195 -110 278 -30 111 108 43 298 -112 308 -22 2 -55 0 -72 -5z"/>
<path d="M3835 1320 c-53 -25 -69 -39 -87 -75 -68 -132 27 -282 170 -270 150
12 221 194 119 303 -52 56 -137 74 -202 42z"/>
<path d="M2360 1181 c-110 -36 -171 -118 -171 -227 0 -204 248 -305 393 -160
109 109 81 298 -54 367 -45 23 -129 33 -168 20z"/>
<path d="M4382 1164 c-211 -102 -148 -421 86 -437 225 -16 336 276 158 411
-79 59 -158 67 -244 26z"/>
<path d="M2880 824 c-128 -38 -197 -185 -145 -312 36 -88 143 -150 239 -139
87 11 149 57 185 137 81 179 -89 370 -279 314z"/>
<path d="M3887 823 c-90 -26 -158 -120 -158 -217 0 -133 104 -237 237 -236 41
0 116 30 148 58 66 59 94 173 62 256 -44 115 -168 175 -289 139z"/>
</g>
</svg>
